<svg xmlns="http://www.w3.org/2000/svg" width="1134" height="54" viewBox="0 0 1134 54" role="img" aria-label="contribution grid">
<!-- K/OS Operator Console asset — generated by scripts/build_assets.py — regenerate, never hand-edit -->
<rect x="0" y="0" width="1134" height="54" rx="6" fill="#0A0E14" stroke="#1E2A38" stroke-width="1"/>
<rect x="0" y="8" width="1134" height="2" fill="#4ADE80" opacity="0.75"/>
<rect x="0" y="44" width="1134" height="2" fill="#2A3A4C"/>
<rect x="18" y="14" width="52" height="26" rx="4" fill="#0C121A" stroke="#1E2A38"/>
<text font-family="ui-monospace, 'Cascadia Mono', 'JetBrains Mono', Menlo, Consolas, 'DejaVu Sans Mono', 'Liberation Mono', monospace" x="44" y="31" font-size="13" font-weight="700" text-anchor="middle" letter-spacing="1" fill="#4ADE80">//05</text>
<text font-family="ui-monospace, 'Cascadia Mono', 'JetBrains Mono', Menlo, Consolas, 'DejaVu Sans Mono', 'Liberation Mono', monospace" x="88" y="31" font-size="13" font-weight="700" letter-spacing="3.5" fill="#E6EDF3">ACTIVITY</text>
<rect x="912" y="16" width="170" height="22" rx="11" fill="#0C121A" stroke="#1E2A38"/>
<text font-family="ui-monospace, 'Cascadia Mono', 'JetBrains Mono', Menlo, Consolas, 'DejaVu Sans Mono', 'Liberation Mono', monospace" x="997.0" y="31" font-size="11" letter-spacing="1" text-anchor="middle" fill="#8B98A9">contribution grid</text>

  <rect x="1100" y="21.6" width="8" height="13" fill="#4ADE80">
    <animate attributeName="opacity" values="1;1;0;0;1" keyTimes="0;0.5;0.5;0.98;1" dur="1.1s" repeatCount="indefinite"/>
  </rect>

  <g opacity="0.6">
  <rect x="88" y="38" width="3" height="3" fill="#2A3A4C"/>
  <rect x="94" y="38" width="3" height="3" fill="#2A3A4C"/>
  <rect x="100" y="38" width="3" height="3" fill="#2A3A4C"/>
  <rect x="106" y="38" width="3" height="3" fill="#2A3A4C"/>
  <rect x="112" y="38" width="3" height="3" fill="#2A3A4C"/>
  <rect x="118" y="38" width="3" height="3" fill="#2A3A4C"/>
  <rect x="124" y="38" width="3" height="3" fill="#2A3A4C"/>
  <rect x="130" y="38" width="3" height="3" fill="#2A3A4C"/>
  <rect x="136" y="38" width="3" height="3" fill="#2A3A4C"/>
  <rect x="142" y="38" width="3" height="3" fill="#2A3A4C"/>
  <rect x="148" y="38" width="3" height="3" fill="#2A3A4C"/>
  <rect x="154" y="38" width="3" height="3" fill="#2A3A4C"/>
  <rect x="160" y="38" width="3" height="3" fill="#2A3A4C"/>
  <rect x="166" y="38" width="3" height="3" fill="#2A3A4C"/>
  <rect x="172" y="38" width="3" height="3" fill="#2A3A4C"/>
  <rect x="178" y="38" width="3" height="3" fill="#2A3A4C"/>
  <rect x="184" y="38" width="3" height="3" fill="#2A3A4C"/>
  <rect x="190" y="38" width="3" height="3" fill="#2A3A4C"/>
  <rect x="196" y="38" width="3" height="3" fill="#2A3A4C"/>
  <rect x="202" y="38" width="3" height="3" fill="#2A3A4C"/>
  <rect x="208" y="38" width="3" height="3" fill="#2A3A4C"/>
  <rect x="214" y="38" width="3" height="3" fill="#2A3A4C"/>
  <rect x="220" y="38" width="3" height="3" fill="#2A3A4C"/>
  <rect x="226" y="38" width="3" height="3" fill="#2A3A4C"/>
  <rect x="232" y="38" width="3" height="3" fill="#2A3A4C"/>
  <rect x="238" y="38" width="3" height="3" fill="#2A3A4C"/>
  <rect x="244" y="38" width="3" height="3" fill="#2A3A4C"/>
  <rect x="250" y="38" width="3" height="3" fill="#2A3A4C"/>
  <rect x="256" y="38" width="3" height="3" fill="#2A3A4C"/>
  <rect x="262" y="38" width="3" height="3" fill="#2A3A4C"/>
  <rect x="268" y="38" width="3" height="3" fill="#2A3A4C"/>
  <rect x="274" y="38" width="3" height="3" fill="#2A3A4C"/>
  <rect x="280" y="38" width="3" height="3" fill="#2A3A4C"/>
  <rect x="286" y="38" width="3" height="3" fill="#2A3A4C"/>
  <rect x="292" y="38" width="3" height="3" fill="#2A3A4C"/>
  <rect x="298" y="38" width="3" height="3" fill="#2A3A4C"/>
  <rect x="304" y="38" width="3" height="3" fill="#2A3A4C"/>
  <rect x="310" y="38" width="3" height="3" fill="#2A3A4C"/>
  <rect x="316" y="38" width="3" height="3" fill="#2A3A4C"/>
  <rect x="322" y="38" width="3" height="3" fill="#2A3A4C"/>
  <rect x="328" y="38" width="3" height="3" fill="#2A3A4C"/>
  <rect x="334" y="38" width="3" height="3" fill="#2A3A4C"/>
  <rect x="340" y="38" width="3" height="3" fill="#2A3A4C"/>
  <rect x="346" y="38" width="3" height="3" fill="#2A3A4C"/>
  <rect x="352" y="38" width="3" height="3" fill="#2A3A4C"/>
  <rect x="358" y="38" width="3" height="3" fill="#2A3A4C"/>
  <rect x="364" y="38" width="3" height="3" fill="#2A3A4C"/>
  <rect x="370" y="38" width="3" height="3" fill="#2A3A4C"/>
  <rect x="376" y="38" width="3" height="3" fill="#2A3A4C"/>
  <rect x="382" y="38" width="3" height="3" fill="#2A3A4C"/>
  <rect x="388" y="38" width="3" height="3" fill="#2A3A4C"/>
  <rect x="394" y="38" width="3" height="3" fill="#2A3A4C"/>
  <rect x="400" y="38" width="3" height="3" fill="#2A3A4C"/>
  </g>
<path d="M 428 27 H 894" stroke="#1E2A38" stroke-width="1" stroke-dasharray="6 5" opacity="0.9"/>
<circle cx="428" cy="27" r="2.2" fill="#4ADE80"/>
<rect x="12" y="12" width="4" height="4" fill="#2A3A4C"/>
<rect x="1118" y="12" width="4" height="4" fill="#2A3A4C"/>
<rect x="12" y="38" width="4" height="4" fill="#2A3A4C"/>
<rect x="1118" y="38" width="4" height="4" fill="#2A3A4C"/>
</svg>
